<?xml version="1.0" encoding="utf-8"?>
<!-- Generator: Adobe Illustrator 24.1.2, SVG Export Plug-In . SVG Version: 6.00 Build 0)  -->
<svg version="1.1" id="Layer_1" xmlns="http://www.w3.org/2000/svg" xmlns:xlink="http://www.w3.org/1999/xlink" x="0px" y="0px"
	 viewBox="0 0 34.7 33.6" style="enable-background:new 0 0 34.7 33.6;" xml:space="preserve">
<style type="text/css">
	.st0{opacity:6.200000e-02;enable-background:new    ;}
	.st1{fill:#363636;}
</style>
<path id="Rectangle_194" class="st0" d="M6.5,0h21.7c3.6,0,6.5,2.9,6.5,6.5v20.6c0,3.6-2.9,6.5-6.5,6.5H6.5c-3.6,0-6.5-2.9-6.5-6.5
	V6.5C0,2.9,2.9,0,6.5,0z"/>
<g id="Group_572" transform="translate(8.134 93.483)">
	<path id="Path_418" class="st1" d="M0-76.7v-4.9c0-1.1,0.5-2.3,1.3-3C2-85.4,3-85.9,4-86h9.8c1.7-0.1,3.4,0.9,4.1,2.5
		c0.3,0.6,0.5,1.3,0.5,2.1v9.5c0,2.2-1.5,4-3.7,4.4c-0.5,0.1-1,0.1-1.5,0.1H4.3c-1.2-0.1-2.2-0.6-3-1.4c-0.7-0.7-1.1-1.6-1.3-2.6
		V-76.7z M1.4-76.7v4.1c0,0.7,0.2,1.5,0.7,2.1c0.7,1.2,2,1.9,3.4,1.8h7.7c0.2,0,0.4,0,0.7-0.1c1.8-0.3,3.2-1.9,3.1-3.8v-8
		c0-0.3,0-0.5-0.1-0.8c-0.3-1.8-1.9-3.2-3.8-3.1H5.2c-0.3,0-0.7,0-1,0.1c-1.7,0.4-2.9,2-2.8,3.7C1.4-79.4,1.4-78,1.4-76.7z"/>
	<path id="Path_419" class="st1" d="M4.6-76.7c0-2.6,2.1-4.7,4.7-4.7s4.7,2.1,4.7,4.7c0,0,0,0.1,0,0.1c0,2.6-2.2,4.7-4.8,4.7
		C6.6-72,4.6-74.1,4.6-76.7z M9-73.1c0.8,0,1.5-0.2,2.2-0.7c1.5-1.1,1.9-3.1,1-4.7c-1-1.6-3.1-2.2-4.7-1.2c-0.2,0.1-0.4,0.2-0.5,0.4
		c-1,0.8-1.4,2.1-1.2,3.4C6.1-74.4,7.4-73.2,9-73.1z"/>
	<path id="Path_420" class="st1" d="M12.7-81.6c0-0.8,0.6-1.4,1.4-1.4s1.4,0.6,1.4,1.4s-0.6,1.4-1.4,1.4l0,0
		C13.3-80.2,12.7-80.8,12.7-81.6z"/>
</g>
</svg>
