<?xml version="1.0" encoding="utf-8"?>
<!-- Generator: Adobe Illustrator 24.1.2, SVG Export Plug-In . SVG Version: 6.00 Build 0)  -->
<svg version="1.1" id="Layer_1" xmlns="http://www.w3.org/2000/svg" xmlns:xlink="http://www.w3.org/1999/xlink" x="0px" y="0px"
	 viewBox="0 0 34 34" style="enable-background:new 0 0 34 34;" xml:space="preserve">
<style type="text/css">
	.st0{opacity:6.200000e-02;enable-background:new    ;}
	.st1{fill:#363636;}
</style>
<path id="Rectangle_355" class="st0" d="M6,0h22c3.3,0,6,2.7,6,6v22c0,3.3-2.7,6-6,6H6c-3.3,0-6-2.7-6-6V6C0,2.7,2.7,0,6,0z"/>
<path id="Path_426" class="st1" d="M15.7,14.7c0,0-0.6-3.3,2.1-3.9s3.3,0.9,3.3,0.9c0.3-0.1,0.6-0.2,0.9-0.4
	c0.3-0.3,0.9-0.8,0.9-0.8c0.1,0.4-0.1,0.9-0.3,1.2c-0.4,0.6-0.3,0.5-0.3,0.5l1.1-0.2c-0.2,0.5-0.5,0.9-0.9,1.2
	c-0.2,0.1-0.4,0.3-0.6,0.4c0,0,0.6,2-1.2,4.8s-3.4,4.4-6.7,4.4c-1.8,0.1-3.5-0.4-5-1.5c1,0.1,2,0,2.9-0.4c0.5-0.3,1-0.6,1.4-1
	c-0.8-0.1-1.6-0.4-2.2-0.9c-0.4-0.3-0.7-0.7-0.9-1.2c0.5,0.1,1,0.1,1.4,0c0.8-0.1,0.6-0.2,0.6-0.2s-0.8,0.2-2-0.8S9,14.8,9,14.8
	s1,0.2,1.5,0.2c0.2,0,0.5,0,0.7,0c0,0-1.3-0.4-1.6-1.2c-0.2-0.5-0.3-1.1-0.2-1.7c0-0.4,0.2-0.8,0.4-1.2c0.5,0.7,1.1,1.3,1.8,1.9
	c1,0.9,2,0.7,2.9,1.1C14.9,14.1,15.4,14.4,15.7,14.7z"/>
</svg>
