<?xml version="1.0" encoding="utf-8"?>
<!-- Generator: Adobe Illustrator 24.1.2, SVG Export Plug-In . SVG Version: 6.00 Build 0)  -->
<svg version="1.1" id="Layer_1" xmlns="http://www.w3.org/2000/svg" xmlns:xlink="http://www.w3.org/1999/xlink" x="0px" y="0px"
	 viewBox="0 0 35 34" style="enable-background:new 0 0 35 34;" xml:space="preserve">
<style type="text/css">
	.st0{opacity:6.200000e-02;enable-background:new    ;}
	.st1{fill:#363636;}
</style>
<path id="Rectangle_354" class="st0" d="M6,0h23c3.3,0,6,2.7,6,6v22c0,3.3-2.7,6-6,6H6c-3.3,0-6-2.7-6-6V6C0,2.7,2.7,0,6,0z"/>
<path id="Path_425" class="st1" d="M15.4,14.8h-2.8v2.9h2.8v6h2.7v-6h2.5v-2.9h-2.5c0,0,0,0,0-1.4s0.3-2,1.8-2c0.4,0,0.9,0,1.3,0V9
	c0,0,0.2-0.1-2.1,0s-3.6,1.4-3.7,4S15.4,14.8,15.4,14.8z"/>
</svg>
