<?xml version="1.0" encoding="utf-8"?>
<!-- Generator: Adobe Illustrator 24.1.3, SVG Export Plug-In . SVG Version: 6.00 Build 0)  -->
<svg version="1.1" id="Layer_1" xmlns="http://www.w3.org/2000/svg" xmlns:xlink="http://www.w3.org/1999/xlink" x="0px" y="0px"
	 viewBox="0 0 35.8 35.8" style="enable-background:new 0 0 35.8 35.8;" xml:space="preserve">
<style type="text/css">
	.st0{fill:#363636;}
	.st1{fill-rule:evenodd;clip-rule:evenodd;fill:#363636;}
	.st2{stroke:#000000;stroke-width:0.2;}
	.st3{stroke:#000000;stroke-width:0.3;}
</style>
<g id="Group_641" transform="translate(-248.471 45.993)">
	<path id="Path_436" class="st1" d="M269.1-39.8c-2.9,0-5.6,1-7.7,2.9c-0.3,0.3-0.3,0.7,0,1c0.2,0.3,0.6,0.3,0.9,0.1l0,0
		c4.3-3.8,10.8-3.4,14.6,0.9c3.8,4.3,3.4,10.8-0.9,14.6c-3.9,3.4-9.8,3.4-13.7,0c-0.3-0.3-0.7-0.2-1,0s-0.2,0.7,0,1c0,0,0,0,0,0l0,0
		c4.9,4.3,12.3,3.8,16.6-1s3.8-12.3-1-16.6C274.7-38.8,272-39.8,269.1-39.8z"/>
	<path id="Path_437" class="st0" d="M252.5-28.8c-0.4,0-0.7,0.3-0.7,0.7c0,0.4,0.3,0.7,0.7,0.7h6.9c0.4,0,0.7-0.3,0.7-0.7
		c0-0.4-0.3-0.7-0.7-0.7c0,0,0,0-0.1,0H252.5z"/>
	<path id="Path_438" class="st0" d="M253.9-31.6c-0.4,0-0.7,0.3-0.7,0.7c0,0.4,0.3,0.7,0.7,0.7h5.5c0.4,0,0.7-0.3,0.7-0.7
		c0-0.4-0.3-0.7-0.7-0.7H253.9z"/>
	<path id="Path_439" class="st0" d="M253.9-26c-0.4,0-0.7,0.3-0.7,0.7c0,0.4,0.3,0.7,0.7,0.7h5.5c0.4,0,0.7-0.3,0.7-0.7
		c0-0.4-0.3-0.7-0.7-0.7H253.9z"/>
	<path id="Path_440" class="st0" d="M255.3-34.3c-0.4,0-0.7,0.3-0.7,0.7s0.3,0.7,0.7,0.7c0,0,0,0,0.1,0h5.5c0.4,0,0.7-0.3,0.7-0.7
		c0-0.4-0.3-0.7-0.7-0.7H255.3z"/>
	<path id="Path_441" class="st0" d="M255.3-23.3c-0.4,0-0.7,0.3-0.7,0.7c0,0.4,0.3,0.7,0.7,0.7c0,0,0,0,0.1,0h5.5
		c0.4,0,0.7-0.3,0.7-0.7c0-0.4-0.3-0.7-0.7-0.7H255.3z"/>
	<path id="Path_442" class="st0" d="M269.1-35.7c-0.4,0-0.7,0.3-0.7,0.7v6.9c0,0.2,0.1,0.4,0.2,0.5l4.1,4.1c0.3,0.3,0.7,0.3,1,0.1
		s0.3-0.7,0.1-1c0,0,0,0,0,0l0,0l-3.9-3.9V-35C269.8-35.4,269.5-35.7,269.1-35.7C269.1-35.7,269.1-35.7,269.1-35.7L269.1-35.7z"/>
	<path id="Path_443" class="st1" d="M269.8-37.1c0,0.4-0.3,0.7-0.7,0.7c0,0,0,0,0,0l0,0c-0.4,0-0.7-0.3-0.7-0.7c0,0,0,0,0,0l0,0
		c0-0.4,0.3-0.7,0.7-0.7c0,0,0,0,0,0l0,0C269.5-37.8,269.8-37.5,269.8-37.1C269.8-37.1,269.8-37.1,269.8-37.1z"/>
	<path id="Path_444" class="st1" d="M269.8-19.1c0,0.4-0.3,0.7-0.7,0.7c0,0,0,0,0,0l0,0c-0.4,0-0.7-0.3-0.7-0.7l0,0l0,0
		c0-0.4,0.3-0.7,0.7-0.7l0,0l0,0C269.5-19.8,269.8-19.5,269.8-19.1C269.8-19.1,269.8-19.1,269.8-19.1z"/>
	<path id="Path_445" class="st1" d="M278.1-28.8c0.4,0,0.7,0.3,0.7,0.7c0,0,0,0,0,0l0,0c0,0.4-0.3,0.7-0.7,0.7c0,0,0,0,0,0l0,0
		c-0.4,0-0.7-0.3-0.7-0.7l0,0l0,0C277.4-28.5,277.7-28.8,278.1-28.8z"/>
	<path id="Path_446" class="st1" d="M275-34.9c0.3-0.3,0.7-0.3,1,0c0.3,0.3,0.3,0.7,0,1c-0.3,0.3-0.7,0.3-1,0l0,0
		C274.7-34.2,274.7-34.7,275-34.9z"/>
	<path id="Path_447" class="st1" d="M275.9-22.2c0,0.1-1.3,0.5,0,1c-0.3,0.3-0.7,0.3-1,0s-0.3-0.7,0-1
		C275.2-22.5,275.7-22.5,275.9-22.2z"/>
</g>
</svg>
