<?xml version="1.0" encoding="utf-8"?>
<!-- Generator: Adobe Illustrator 24.1.3, SVG Export Plug-In . SVG Version: 6.00 Build 0)  -->
<svg version="1.1" id="Layer_1" xmlns="http://www.w3.org/2000/svg" xmlns:xlink="http://www.w3.org/1999/xlink" x="0px" y="0px"
	 viewBox="0 0 35.8 35.8" style="enable-background:new 0 0 35.8 35.8;" xml:space="preserve">
<style type="text/css">
	.st0{fill:#363636;}
	.st1{fill-rule:evenodd;clip-rule:evenodd;fill:#363636;}
	.st2{stroke:#000000;stroke-width:0.2;}
	.st3{stroke:#000000;stroke-width:0.3;}
</style>
<g id="Group_642" transform="translate(-482.41 179.148)">
	<path id="Path_448" class="st0" d="M504.7-163.9c0,0.3-0.3,0.6-0.6,0.6h-1.3c0,1.1-0.6,2.7-3.3,2.7h-0.8l3.6,3.6
		c0.2,0.2,0.2,0.6,0,0.8c0,0,0,0,0,0c-0.2,0.2-0.6,0.2-0.8,0l-4.5-4.6c-0.2-0.2-0.2-0.4-0.1-0.6c0.1-0.2,0.3-0.4,0.5-0.3h2.2
		c1.8,0,2.1-0.7,2.2-1.5h-4.4c-0.3,0-0.6-0.3-0.6-0.6c0-0.3,0.3-0.6,0.6-0.6h4.2c-0.3-0.5-0.8-0.8-2-0.8h-2.2
		c-0.3,0-0.6-0.3-0.6-0.6c0-0.3,0.3-0.6,0.6-0.6h6.8c0.3,0,0.6,0.3,0.6,0.6c0,0.3-0.3,0.6-0.6,0.6h-1.8c0.2,0.2,0.3,0.5,0.4,0.8h1.4
		C504.4-164.5,504.7-164.2,504.7-163.9z M509.4-168.8L509.4-168.8v20.9c0,0.2-0.1,0.4-0.3,0.5c-0.1,0-0.1,0-0.2,0
		c-0.1,0-0.3,0-0.4-0.2l-1.3-1.2l-1.3,1.2c-0.2,0.2-0.5,0.2-0.8,0l-1.3-1.2l-1.3,1.2c-0.2,0.2-0.5,0.2-0.8,0l-1.3-1.2l-1.3,1.2
		c-0.2,0.2-0.5,0.2-0.8,0l-1.3-1.2l-1.3,1.2c-0.2,0.2-0.5,0.2-0.8,0l-1.3-1.2l-1.3,1.2c-0.2,0.2-0.4,0.2-0.6,0.1
		c-0.2-0.1-0.4-0.3-0.3-0.5v-26.5c0-0.3,0.3-0.6,0.6-0.6h11.5c0,0,0,0,0.1,0h0c0,0,0,0,0.1,0h0c0,0,0.1,0,0.1,0.1l2.8,2.8
		c1.6,1.6,2.4,2.4,2.7,2.7c0.2,0.1,0.3,0.2,0.3,0.4L509.4-168.8L509.4-168.8z M503.7-173.2v3.8h3.8L503.7-173.2z M508.3-149.2v-19
		h-5.1c-0.3,0-0.6-0.3-0.6-0.6v-5.1h-10.2v24.7l0.8-0.7c0.2-0.2,0.5-0.2,0.8,0l1.3,1.2l1.3-1.2c0.2-0.2,0.5-0.2,0.8,0l1.3,1.2
		l1.3-1.2c0.2-0.2,0.5-0.2,0.8,0l1.3,1.2l1.3-1.2c0.2-0.2,0.5-0.2,0.8,0l1.3,1.2l1.3-1.2c0.2-0.2,0.5-0.2,0.8,0L508.3-149.2z
		 M506-153.1h-11.4c-0.3,0-0.6,0.3-0.6,0.6c0,0.3,0.3,0.6,0.6,0.6H506c0.3,0,0.6-0.3,0.6-0.6C506.6-152.9,506.3-153.1,506-153.1
		L506-153.1z"/>
</g>
</svg>
