<?xml version="1.0" encoding="utf-8"?>
<!-- Generator: Adobe Illustrator 24.1.3, SVG Export Plug-In . SVG Version: 6.00 Build 0)  -->
<svg version="1.1" id="Layer_1" xmlns="http://www.w3.org/2000/svg" xmlns:xlink="http://www.w3.org/1999/xlink" x="0px" y="0px"
	 viewBox="0 0 35.8 35.8" style="enable-background:new 0 0 35.8 35.8;" xml:space="preserve">
<style type="text/css">
	.st0{fill:#363636;}
	.st1{fill-rule:evenodd;clip-rule:evenodd;fill:#363636;}
	.st2{stroke:#000000;stroke-width:0.2;}
	.st3{stroke:#000000;stroke-width:0.3;}
</style>
<g id="Group_640" transform="translate(-128.062 -26.885)">
	<path id="Path_430" class="st0" d="M130.3,49.7c-0.4,0-0.7-0.3-0.7-0.7V38.5c0-0.7,0.6-1.3,1.3-1.3l0,0h2c0.4,0,0.6,0.3,0.6,0.7
		c0,0.4-0.3,0.6-0.6,0.6h-2v10.6C131,49.4,130.7,49.7,130.3,49.7C130.3,49.7,130.3,49.7,130.3,49.7z"/>
	<path id="Path_431" class="st0" d="M146,58c-0.6,0-1.2-0.2-1.7-0.7c-0.9-0.8-2.2-1.3-3.4-1.3h-8.5c-1.4,0-2.6-1.2-2.6-2.6
		c0,0,0,0,0,0v-4.6c0-0.4,0.3-0.7,0.6-0.7c0.4,0,0.7,0.3,0.7,0.6c0,0,0,0,0,0.1v4.6c0,0.7,0.6,1.3,1.3,1.3l0,0h8.5
		c1.6,0,3.1,0.6,4.3,1.6c0.5,0.4,1.2,0.4,1.7,0c1.2-1,2.7-1.6,4.3-1.6h8.5c0.7,0,1.3-0.6,1.3-1.3c0,0,0,0,0,0v-15h-2
		c-0.4,0-0.7-0.3-0.7-0.6c0-0.4,0.3-0.7,0.6-0.7c0,0,0,0,0,0h2c0.7,0,1.3,0.6,1.3,1.3v0v15c0,1.4-1.2,2.6-2.6,2.6c0,0,0,0,0,0h-8.5
		c-1.3,0-2.5,0.5-3.5,1.3C147.2,57.8,146.6,58,146,58z"/>
	<path id="Path_432" class="st0" d="M146.1,38.5h-0.2c-0.4,0-0.7-0.3-0.7-0.6c0-0.4,0.3-0.7,0.6-0.7c0,0,0,0,0,0h0.2
		c0.4,0,0.7,0.3,0.7,0.6C146.7,38.2,146.4,38.5,146.1,38.5C146.1,38.5,146.1,38.5,146.1,38.5z"/>
	<path id="Path_433" class="st0" d="M146,55.5c-0.1,0-0.2,0-0.2,0c-1.5-0.5-3-1-4.5-1.3c-2.1-0.4-4.2-0.7-6.4-0.7
		c-1.4,0-2.6-1.2-2.6-2.6c0,0,0,0,0,0v-2c0-0.4,0.3-0.7,0.6-0.7c0.4,0,0.7,0.3,0.7,0.7v2c0,0.7,0.6,1.3,1.3,1.3l0,0
		c2.2,0,4.5,0.3,6.6,0.7c1.3,0.3,2.5,0.6,3.8,1V38.3c-1.3-0.5-2.7-0.8-4-1.1c-2.5-0.5-5.1-0.8-7.7-0.7v12.5c0,0.4-0.3,0.7-0.7,0.7
		c-0.4,0-0.6-0.3-0.6-0.7V36.5c0-0.7,0.6-1.3,1.2-1.3c2.7-0.1,5.4,0.2,8,0.7c1.6,0.3,3.1,0.8,4.6,1.3c0.3,0.1,0.4,0.3,0.4,0.6v16.9
		C146.6,55.1,146.3,55.4,146,55.5L146,55.5L146,55.5z"/>
	<path id="Path_434" class="st0" d="M146,55.5c-0.4,0-0.7-0.3-0.7-0.7V37.9c0-0.4,0.3-0.7,0.6-0.7c0.4,0,0.7,0.3,0.7,0.6
		c0,0,0,0,0,0.1v16c1.2-0.4,2.5-0.8,3.8-1c2.2-0.5,4.4-0.7,6.6-0.7c0.7,0,1.3-0.6,1.3-1.3c0,0,0,0,0,0V36.5c-1.3,0-2.6,0-3.8,0.1
		c-0.4,0.1-0.7-0.2-0.7-0.5s0.2-0.7,0.5-0.7c0,0,0.1,0,0.1,0c1.3-0.1,2.7-0.2,4-0.1c0.7,0,1.3,0.6,1.3,1.3v14.3
		c0,1.4-1.2,2.6-2.6,2.6c0,0,0,0,0,0c-2.1,0-4.3,0.2-6.4,0.7c-1.5,0.3-3,0.8-4.5,1.3C146.1,55.4,146,55.5,146,55.5z"/>
	<path id="Path_435" class="st0" d="M146,55.5c-0.1,0-0.2,0-0.2,0c-0.2-0.1-0.4-0.3-0.4-0.6V37.9c0-0.2,0.1-0.3,0.2-0.5
		c0.9-1,2-1.9,3-2.8c1.4-1.2,3-2.2,4.7-3c0.7-0.3,1.4,0,1.7,0.6c0.1,0.2,0.1,0.4,0.1,0.6v14.7c0,1-0.6,1.9-1.5,2.3
		c-1.5,0.7-3,1.7-4.3,2.7c-1,0.8-2,1.7-2.9,2.7C146.3,55.4,146.1,55.5,146,55.5z M146.6,38.1v15.1c0.7-0.6,1.3-1.2,1.9-1.7
		c1.4-1.1,2.9-2.1,4.6-2.9c0.4-0.2,0.7-0.7,0.7-1.2V32.8c-1.6,0.8-3.1,1.7-4.4,2.8C148.4,36.4,147.5,37.3,146.6,38.1L146.6,38.1z"/>
</g>
</svg>
